<?xml version="1.0" encoding="UTF-8" standalone="no"?>
<svg
   xmlns:dc="http://purl.org/dc/elements/1.1/"
   xmlns:cc="http://creativecommons.org/ns#"
   xmlns:rdf="http://www.w3.org/1999/02/22-rdf-syntax-ns#"
   xmlns:svg="http://www.w3.org/2000/svg"
   xmlns="http://www.w3.org/2000/svg"
   viewBox="0 0 2829.3333 2829.3333"
   height="2829.3333"
   width="2829.3333"
   xml:space="preserve"
   id="svg2"
   version="1.1"><metadata
     id="metadata8"><rdf:RDF><cc:Work
         rdf:about=""><dc:format>image/svg+xml</dc:format><dc:type
           rdf:resource="http://purl.org/dc/dcmitype/StillImage" /></cc:Work></rdf:RDF></metadata><defs
     id="defs6" /><g
     transform="matrix(1.3333333,0,0,-1.3333333,0,2829.3333)"
     id="g10"><g
       transform="scale(0.1)"
       id="g12"><g
         transform="scale(1.06948)"
         id="g14"><path
           id="path16"
           style="fill:#7a3b35;fill-opacity:1;fill-rule:nonzero;stroke:none"
           d="m 16058.4,10269.7 v 0 c -675.5,0 -1228.2,371.4 -1228.2,825.4 0,-454 -552.7,-825.4 -1228.1,-825.4 -675.5,0 -1228.2,371.4 -1228.2,825.4 0,-454 -552.7,-825.4 -1228.2,-825.4 -675.5,0 -1228.15,371.4 -1228.15,825.4 0,-454 -552.71,-825.4 -1228.16,-825.4 -675.46,0 -1228.13,371.4 -1228.16,825.4 0,-454 -552.68,-825.4 -1228.15,-825.4 -675.49,0 -1228.16,371.4 -1228.16,825.4 0,-454 -552.67,-825.4 -1228.15,-825.4 h -0.01 c -82.65,0 -163.43,5.6 -241.61,16.2 V 3128.72 h 1328.83 v 7046.88 h 4409.3 V 3128.72 H 16300 v 7157.18 c -78.3,-10.6 -159,-16.2 -241.6,-16.2" /></g><g
         transform="scale(1.06948)"
         id="g18"><path
           id="path20"
           style="fill:#5d2b2a;fill-opacity:1;fill-rule:nonzero;stroke:none"
           d="m 16058.4,10759.5 c -675.6,0 -1228.2,371.4 -1228.2,825.4 0,-454 -552.7,-825.4 -1228.1,-825.4 -675.5,0 -1228.2,371.4 -1228.2,825.4 0,-454 -552.7,-825.4 -1228.2,-825.4 v 0 c -675.5,0 -1228.15,371.4 -1228.15,825.4 0,-454 -552.71,-825.4 -1228.15,-825.4 h -0.01 c -675.46,0 -1228.13,371.4 -1228.16,825.4 -0.02,-454 -552.69,-825.4 -1228.15,-825.4 v 0 c -675.49,0 -1228.16,371.4 -1228.16,825.4 0,-454 -552.67,-825.4 -1228.15,-825.4 h -0.01 c -82.65,0 -163.43,5.6 -241.61,16.2 v -489.8 c 78.18,-10.6 158.96,-16.2 241.61,-16.2 h 0.01 c 675.48,0 1228.15,371.4 1228.15,825.4 0,-454 552.67,-825.4 1228.16,-825.4 675.47,0 1228.15,371.4 1228.15,825.4 0.03,-454 552.7,-825.4 1228.16,-825.4 675.45,0 1228.16,371.4 1228.16,825.4 0,-454 552.65,-825.4 1228.15,-825.4 675.5,0 1228.2,371.4 1228.2,825.4 0,-454 552.7,-825.4 1228.2,-825.4 675.4,0 1228.1,371.4 1228.1,825.4 0,-454 552.7,-825.4 1228.2,-825.4 v 0 c 82.6,0 163.3,5.6 241.6,16.2 v 489.8 c -78.3,-10.6 -159,-16.2 -241.6,-16.2 v 0" /></g><path
         id="path22"
         style="fill:#2a2122;fill-opacity:1;fill-rule:nonzero;stroke:none"
         d="m 3780.77,3346.1 h -19.16 c -84.56,0 -153.1,-68.5 -153.1,-153.1 V 1604.4 c 0,-84.6 68.54,-153.1 153.1,-153.1 h 19.16 1421.15 V 3346.1 H 3780.77" /><g
         transform="scale(1.08004)"
         id="g24"><path
           id="path26"
           style="fill:#2a2122;fill-opacity:1;fill-rule:nonzero;stroke:none"
           d="m 9182.57,1343.74 h 6958.03 17.6 c 78.4,0 141.8,63.43 141.8,141.76 v 1470.86 c 0,78.34 -63.4,141.76 -141.8,141.76 h -17.6 -6958.03 V 1343.74" /></g><g
         transform="scale(1.21322)"
         id="g28"><path
           id="path30"
           style="fill:#fddecc;fill-opacity:1;fill-rule:nonzero;stroke:none"
           d="M 5831.79,16300 H 4376.43 L 2246.64,11011 h 2165.28 l 1419.87,5289" /></g><g
         transform="scale(1.21322)"
         id="g32"><path
           id="path34"
           style="fill:#9a1c49;fill-opacity:1;fill-rule:nonzero;stroke:none"
           d="m 6577.21,11011 v 0 l 709.94,5289 H 5831.79 L 4411.92,11011 h 2165.29" /></g><g
         transform="scale(1.21322)"
         id="g36"><path
           id="path38"
           style="fill:#fddecc;fill-opacity:1;fill-rule:nonzero;stroke:none"
           d="m 8742.49,11011 v 5289 H 7287.15 l -709.94,-5289 h 2165.28" /></g><g
         transform="scale(1.21322)"
         id="g40"><path
           id="path42"
           style="fill:#9a1c49;fill-opacity:1;fill-rule:nonzero;stroke:none"
           d="m 8742.49,11011 h 2165.31 l -709.9,5289 H 8742.49 v -5289 0" /></g><g
         transform="scale(1.21322)"
         id="g44"><path
           id="path46"
           style="fill:#fddecc;fill-opacity:1;fill-rule:nonzero;stroke:none"
           d="m 13073.1,11011 -1419.9,5289 h -1455.3 l 709.9,-5289 h 2165.3" /></g><g
         transform="scale(1.21322)"
         id="g48"><path
           id="path50"
           style="fill:#9a1c49;fill-opacity:1;fill-rule:nonzero;stroke:none"
           d="m 11653.2,16300 1419.9,-5289 h 2165.3 l -2129.9,5289 h -1455.3" /></g><path
         id="path52"
         style="fill:#d2c5bb;fill-opacity:1;fill-rule:nonzero;stroke:none"
         d="m 4039.17,11507 c 722.41,0 1313.48,397.3 1313.48,882.9 v 968.9 H 2725.67 v -968.9 c 0,-426.2 455.32,-784.3 1055.1,-865.5 83.61,-11.4 170,-17.4 258.39,-17.4 h 0.01" /><path
         id="path54"
         style="fill:#74173b;fill-opacity:1;fill-rule:nonzero;stroke:none"
         d="M 7979.63,13358.8 H 5352.65 v -968.9 c 0,-485.6 591.07,-882.9 1313.49,-882.9 h 0.01 c 722.39,0 1313.45,397.3 1313.48,882.8 0,0 0,0 0,0.1 v 968.9" /><path
         id="path56"
         style="fill:#d2c5bb;fill-opacity:1;fill-rule:nonzero;stroke:none"
         d="M 10606.6,13358.8 H 7979.63 v 0 -968.9 c 0,-0.1 0,-0.1 0,-0.1 0.03,-485.5 591.09,-882.8 1313.49,-882.8 h 0.01 c 722.37,0 1313.47,397.3 1313.47,882.8 0,0 0,0 0,0.1 v 968.9" /><path
         id="path58"
         style="fill:#74173b;fill-opacity:1;fill-rule:nonzero;stroke:none"
         d="m 10606.6,13358.8 v 0 -968.9 c 0,-0.1 0,-0.1 0,-0.1 0,-485.5 591.1,-882.8 1313.5,-882.8 v 0 c 722.4,0 1313.5,397.3 1313.5,882.9 v 968.9 h -2627" /><path
         id="path60"
         style="fill:#d2c5bb;fill-opacity:1;fill-rule:nonzero;stroke:none"
         d="m 13233.6,12389.9 c 0,-485.6 591.1,-882.9 1313.5,-882.9 722.4,0 1313.5,397.3 1313.5,882.9 v 968.9 h -2627 v -968.9" /><g
         transform="scale(1.13421)"
         id="g62"><path
           id="path64"
           style="fill:#74173b;fill-opacity:1;fill-rule:nonzero;stroke:none"
           d="m 13983.8,10923.8 c 0,-428.1 521.1,-778.4 1158.1,-778.4 v 0 c 78,0 154.1,5.3 227.8,15.3 528.8,71.7 930.3,387.4 930.3,763.1 v 854.3 h -2316.2 v -854.3" /></g><path
         id="path66"
         style="fill:#291a1a;fill-opacity:1;fill-rule:nonzero;stroke:none"
         d="M 5201.92,10882.6 V 1451.3 h 4715.65 v 9431.3 H 5201.92" /><path
         id="path68"
         style="fill:#53aee5;fill-opacity:1;fill-rule:nonzero;stroke:none"
         d="m 7985.91,9813.6 c 152.81,136.7 307.13,273 467.32,401.5 H 5643.34 V 7923.3 c 124.79,95.4 249.61,190.7 374.27,286.2 672.32,515.2 1336.8,1039.2 1968.3,1604.1" /><path
         id="path70"
         style="fill:#53aee5;fill-opacity:1;fill-rule:nonzero;stroke:none"
         d="M 9046.88,8546.4 C 8890.65,8415.3 8743.9,8274.1 8595.55,8134.2 8019.88,7591.5 7445.39,7047.5 6863.49,6511.4 h 2612.66 v 2386 l -5.73,-4.8 c -140.67,-116 -283.86,-229 -423.54,-346.2" /><path
         id="path72"
         style="fill:#63cdf5;fill-opacity:1;fill-rule:nonzero;stroke:none"
         d="M 8453.23,10215.1 C 8293.04,10086.6 8138.72,9950.3 7985.91,9813.6 7354.41,9248.7 6689.93,8724.7 6017.61,8209.5 5892.95,8114 5768.13,8018.7 5643.34,7923.3 V 6511.4 h 1220.15 c 581.9,536.1 1156.39,1080.1 1732.06,1622.8 148.35,139.9 295.1,281.1 451.33,412.2 139.68,117.2 282.87,230.2 423.54,346.2 l 5.73,4.8 v 1317.7 0 H 8453.23 v 0" /><path
         id="path74"
         style="fill:#d2c5bb;fill-opacity:1;fill-rule:nonzero;stroke:none"
         d="m 6429.29,5434.8 h -667.52 c -65.13,0 -118.43,-53.3 -118.43,-118.4 0,-65.2 53.3,-118.4 118.43,-118.4 h 667.52 c 65.13,0 118.43,53.2 118.43,118.4 0,65.1 -53.3,118.4 -118.43,118.4" /><g
         transform="scale(1.03248)"
         id="g76"><path
           id="path78"
           style="fill:#291a1a;fill-opacity:1;fill-rule:nonzero;stroke:none"
           d="M 10126.9,10540.2 V 5149.13 H 16300 v 5391.07 h -6173.1" /></g><path
         id="path80"
         style="fill:#53aee5;fill-opacity:1;fill-rule:nonzero;stroke:none"
         d="m 13023.5,8510 c 420.9,372.8 837.2,751 1241.6,1141.6 306.2,295.7 605.5,598.7 894.4,911.3 H 10821.9 V 6577.7 c 304.4,274.1 612.2,544.4 920.9,813.5 427.3,372.5 856.4,742.9 1280.7,1118.8" /><g
         transform="scale(1.01003)"
         id="g82"><path
           id="path84"
           style="fill:#53aee5;fill-opacity:1;fill-rule:nonzero;stroke:none"
           d="m 15160.9,8240.64 c -206.1,-185.54 -404.6,-380.18 -605.7,-571.27 -423.2,-402.16 -845.2,-805.42 -1272.4,-1203.33 -321.6,-299.4 -646.1,-595.72 -975.8,-885.91 h 3993 v 3627.51 c -181.4,-170.59 -374.6,-329.29 -565.7,-485.73 -193.1,-158.01 -387.8,-314.34 -573.4,-481.27" /></g><g
         transform="scale(1.01003)"
         id="g86"><path
           id="path88"
           style="fill:#63cdf5;fill-opacity:1;fill-rule:nonzero;stroke:none"
           d="m 13282.8,6466.04 c 427.2,397.91 849.2,801.17 1272.4,1203.33 201.1,191.09 399.6,385.73 605.7,571.27 185.6,166.93 380.3,323.26 573.4,481.27 191.1,156.44 384.3,315.14 565.7,485.73 v 0 1250.36 0 h -1291 c -286.1,-309.5 -582.4,-609.49 -885.6,-902.25 -400.4,-386.72 -812.5,-761.16 -1229.2,-1130.26 -420.1,-372.17 -845,-738.89 -1268,-1107.69 -305.7,-266.43 -610.4,-534.04 -911.8,-805.42 V 5580.13 H 12307 c 329.7,290.19 654.2,586.51 975.8,885.91" /></g></g></g></svg>